<svg width="200" height="200" viewBox="0 0 200 200" fill="none" xmlns="http://www.w3.org/2000/svg">
<path d="M116.38 11.2402L100 39.6102L83.6201 11.2402H29.0801L100 134.07L170.92 11.2402H116.38Z" fill="#4EB987"/>
<path d="M116.38 11.2402L100 39.6102L83.6202 11.2402H57.4502L100 84.9402L142.55 11.2402H116.38Z" fill="#455567"/>
<path d="M52.6001 149.07C52.6109 148.843 52.6825 148.623 52.8074 148.433C52.9323 148.243 53.1059 148.09 53.3101 147.99C53.7552 147.715 54.2669 147.566 54.7901 147.56C55.0727 147.52 55.3606 147.58 55.6036 147.729C55.8466 147.879 56.0294 148.11 56.1201 148.38L63.6901 173.91L71.2101 148.38C71.2984 148.122 71.4704 147.902 71.6988 147.753C71.9271 147.604 72.1987 147.537 72.4701 147.56C73.0132 147.546 73.5475 147.7 74.0001 148C74.1977 148.102 74.3658 148.253 74.4884 148.439C74.6109 148.624 74.6838 148.838 74.7001 149.06C74.7035 149.103 74.7035 149.147 74.7001 149.19C74.6908 149.247 74.6908 149.304 74.7001 149.36L65.9001 178C65.719 178.429 65.4008 178.785 64.9954 179.013C64.5899 179.241 64.1203 179.328 63.6601 179.26C62.4801 179.26 61.7501 178.85 61.5001 178.02L52.6901 149.44C52.6434 149.322 52.6131 149.197 52.6001 149.07Z" fill="#455567"/>
<path d="M76.2798 171.07V159.9C76.287 159.716 76.3401 159.536 76.4344 159.377C76.5287 159.218 76.6612 159.085 76.8198 158.99C77.1895 158.735 77.6303 158.602 78.0798 158.61C78.5228 158.604 78.9554 158.744 79.3098 159.01C79.4622 159.105 79.5904 159.234 79.6841 159.386C79.7779 159.539 79.8346 159.712 79.8498 159.89V171C79.8518 171.647 79.9819 172.286 80.2325 172.882C80.4831 173.477 80.8492 174.017 81.3098 174.47C81.7484 174.952 82.2827 175.337 82.8785 175.6C83.4743 175.863 84.1184 175.999 84.7698 175.999C85.4212 175.999 86.0653 175.863 86.6611 175.6C87.2569 175.337 87.7912 174.952 88.2298 174.47C88.6895 174.016 89.055 173.476 89.3056 172.881C89.5561 172.285 89.6867 171.646 89.6898 171V159.85C89.703 159.675 89.758 159.506 89.8502 159.356C89.9425 159.206 90.0692 159.081 90.2198 158.99C90.5931 158.734 91.0372 158.601 91.4898 158.61C91.9408 158.591 92.3862 158.717 92.7598 158.97C92.9068 159.066 93.0283 159.196 93.1137 159.35C93.1991 159.503 93.2458 159.675 93.2498 159.85V171.07C93.2546 172.155 93.034 173.229 92.6019 174.224C92.1698 175.219 91.5357 176.113 90.7398 176.85C89.1538 178.433 87.005 179.321 84.7648 179.321C82.5246 179.321 80.3758 178.433 78.7898 176.85C77.9958 176.112 77.363 175.217 76.9311 174.223C76.4991 173.228 76.2774 172.155 76.2798 171.07Z" fill="#455567"/>
<path d="M97.3799 171V166.49C97.3744 165.415 97.595 164.352 98.0274 163.368C98.4599 162.384 99.0944 161.503 99.8899 160.78C100.682 160.002 101.619 159.389 102.649 158.975C103.679 158.562 104.78 158.356 105.89 158.37C108.04 158.338 110.119 159.141 111.69 160.61C112.482 161.313 113.111 162.179 113.534 163.15C113.958 164.121 114.164 165.172 114.14 166.23C114.16 166.909 114.059 167.587 113.84 168.23C113.676 168.69 113.348 169.075 112.92 169.31C112.557 169.509 112.166 169.651 111.76 169.73C111.282 169.789 110.801 169.815 110.32 169.81H101V171.1C100.971 171.818 101.109 172.532 101.402 173.188C101.695 173.844 102.136 174.423 102.69 174.88C103.941 175.869 105.507 176.373 107.1 176.3C107.943 176.32 108.783 176.174 109.57 175.87C110.162 175.645 110.731 175.363 111.27 175.03C111.563 174.812 111.908 174.675 112.27 174.63C112.466 174.637 112.657 174.689 112.831 174.781C113.004 174.872 113.154 175.002 113.27 175.16C113.537 175.465 113.689 175.854 113.7 176.26C113.7 176.92 113.05 177.59 111.7 178.26C109.815 179.113 107.736 179.445 105.678 179.224C103.621 179.002 101.661 178.234 99.9999 177C99.1431 176.259 98.4631 175.335 98.0097 174.297C97.5564 173.259 97.3412 172.132 97.3799 171ZM100.95 167.39H108.95C109.466 167.44 109.986 167.343 110.45 167.11C110.597 166.973 110.71 166.802 110.778 166.613C110.845 166.423 110.867 166.22 110.84 166.02C110.841 165.387 110.715 164.761 110.471 164.177C110.228 163.594 109.87 163.064 109.42 162.62C108.973 162.149 108.432 161.776 107.833 161.525C107.234 161.273 106.589 161.149 105.94 161.16C104.646 161.136 103.395 161.625 102.46 162.52C101.99 162.936 101.616 163.449 101.363 164.024C101.111 164.599 100.987 165.222 101 165.85L100.95 167.39Z" fill="#455567"/>
<path d="M117.19 177.21C117.187 176.935 117.242 176.663 117.352 176.411C117.463 176.159 117.626 175.934 117.83 175.75C118.261 175.35 118.832 175.135 119.42 175.15C119.996 175.138 120.553 175.353 120.97 175.75C121.176 175.933 121.34 176.158 121.452 176.41C121.564 176.662 121.622 176.935 121.62 177.21C121.62 177.48 121.562 177.746 121.45 177.991C121.337 178.236 121.174 178.454 120.97 178.63C120.553 179.027 119.996 179.243 119.42 179.23C118.832 179.246 118.261 179.03 117.83 178.63C117.628 178.453 117.466 178.235 117.355 177.99C117.245 177.745 117.188 177.479 117.19 177.21Z" fill="#455567"/>
<path d="M121.57 187.21C121.552 186.767 121.706 186.333 122 186C122.124 185.856 122.278 185.74 122.45 185.659C122.622 185.578 122.81 185.534 123 185.53C123.45 185.586 123.905 185.496 124.3 185.272C124.694 185.049 125.006 184.705 125.19 184.29C125.595 183.094 125.771 181.832 125.71 180.57V159.85C125.71 159.671 125.754 159.495 125.84 159.338C125.926 159.181 126.049 159.047 126.2 158.95C126.578 158.71 127.022 158.591 127.47 158.61C127.924 158.591 128.374 158.709 128.76 158.95C128.921 159.038 129.054 159.169 129.146 159.327C129.238 159.486 129.284 159.667 129.28 159.85V180.7C129.385 182.777 128.878 184.84 127.82 186.63C127.334 187.348 126.671 187.927 125.894 188.311C125.118 188.695 124.255 188.87 123.39 188.82C122.19 188.82 121.57 188.28 121.57 187.21ZM125.93 152.4C125.725 152.22 125.56 151.999 125.446 151.751C125.332 151.503 125.272 151.233 125.27 150.96C125.268 150.691 125.324 150.425 125.435 150.18C125.545 149.935 125.707 149.717 125.91 149.54C126.341 149.14 126.912 148.925 127.5 148.94C128.075 148.93 128.631 149.145 129.05 149.54C129.252 149.717 129.414 149.935 129.525 150.18C129.635 150.425 129.691 150.691 129.69 150.96C129.686 151.231 129.628 151.498 129.518 151.746C129.408 151.993 129.248 152.216 129.05 152.4C128.845 152.6 128.602 152.758 128.337 152.864C128.071 152.971 127.786 153.024 127.5 153.02C126.916 153.024 126.353 152.802 125.93 152.4Z" fill="#455567"/>
<path d="M133.17 176.05C133.184 175.658 133.312 175.279 133.54 174.96C133.628 174.801 133.755 174.669 133.909 174.574C134.063 174.479 134.239 174.426 134.42 174.42C134.801 174.491 135.151 174.68 135.42 174.96C135.986 175.378 136.609 175.715 137.27 175.96C138.167 176.327 139.131 176.504 140.1 176.48C141.197 176.57 142.294 176.296 143.22 175.7C143.533 175.469 143.786 175.167 143.96 174.82C144.134 174.472 144.223 174.088 144.22 173.7C144.237 173.261 144.147 172.824 143.959 172.427C143.771 172.03 143.49 171.685 143.14 171.42C142.362 170.821 141.471 170.385 140.52 170.14C139.493 169.853 138.463 169.52 137.43 169.14C136.415 168.801 135.508 168.201 134.8 167.4C134.057 166.5 133.676 165.355 133.73 164.19C133.722 163.408 133.871 162.633 134.17 161.912C134.47 161.19 134.912 160.536 135.47 159.99C136.63 158.81 138.4 158.22 140.78 158.22C142.2 158.203 143.611 158.436 144.95 158.91C146.21 159.37 146.84 159.89 146.84 160.47C146.813 160.887 146.671 161.288 146.43 161.63C146.335 161.815 146.192 161.972 146.016 162.085C145.841 162.197 145.638 162.261 145.43 162.27C144.86 162.107 144.304 161.896 143.77 161.64C142.843 161.232 141.843 161.018 140.83 161.01C140.302 160.964 139.77 161.023 139.266 161.185C138.761 161.346 138.293 161.606 137.89 161.95C137.584 162.209 137.337 162.53 137.164 162.892C136.992 163.254 136.898 163.649 136.89 164.05C136.861 164.462 136.95 164.873 137.146 165.236C137.343 165.599 137.639 165.899 138 166.1C138.814 166.603 139.706 166.968 140.64 167.18C141.694 167.456 142.732 167.79 143.75 168.18C144.79 168.564 145.701 169.233 146.38 170.11C147.126 171.139 147.504 172.389 147.45 173.66C147.483 174.454 147.33 175.245 147.001 175.97C146.673 176.694 146.179 177.331 145.56 177.83C144.026 178.935 142.157 179.475 140.27 179.36C138.547 179.429 136.833 179.086 135.27 178.36C133.87 177.6 133.17 176.83 133.17 176.05Z" fill="#455567"/>
</svg>
